# xmcd CD database file
#
# Track frame offsets:
#	150
#	27207
#	49187
#
# Disc length: 1013 seconds
#
# Revision: 0
# Processed by: cddbd v1.5PL3 Copyright (c) Steve Scherf et al.
# Submitted via: CDex 1.50beta9
#
DISCID=1d03f303
DTITLE=江口洋介 - 愛は愛で
DYEAR=1994
DGENRE=J-POP
TTITLE0=愛は愛で
TTITLE1=誰でもない君へ
TTITLE2=愛は愛で　カラオケ
EXTD=YEAR: 1994
EXTT0=
EXTT1=
EXTT2=
PLAYORDER=
